<?xml version="1.0" encoding="UTF-8" standalone="no"?>
<!-- Created with Inkscape (http://www.inkscape.org/) -->

<svg
   width="500"
   height="500"
   viewBox="0 0 132.29167 132.29167"
   version="1.1"
   id="svg1"
   xml:space="preserve"
   inkscape:version="1.3.2 (091e20ef0f, 2023-11-25)"
   sodipodi:docname="mug_mask.svg"
   xmlns:inkscape="http://www.inkscape.org/namespaces/inkscape"
   xmlns:sodipodi="http://sodipodi.sourceforge.net/DTD/sodipodi-0.dtd"
   xmlns="http://www.w3.org/2000/svg"
   xmlns:svg="http://www.w3.org/2000/svg"><sodipodi:namedview
     id="namedview1"
     pagecolor="#ffffff"
     bordercolor="#000000"
     borderopacity="0.25"
     inkscape:showpageshadow="2"
     inkscape:pageopacity="0.0"
     inkscape:pagecheckerboard="0"
     inkscape:deskcolor="#d1d1d1"
     inkscape:document-units="mm"
     inkscape:zoom="1.2872451"
     inkscape:cx="319.67493"
     inkscape:cy="221.01463"
     inkscape:window-width="1470"
     inkscape:window-height="1019"
     inkscape:window-x="0"
     inkscape:window-y="27"
     inkscape:window-maximized="0"
     inkscape:current-layer="svg1" /><defs
     id="defs1"><inkscape:path-effect
       effect="mirror_symmetry"
       start_point="67.999245,24.321631"
       end_point="67.999245,110.65184"
       center_point="67.999245,67.486736"
       id="path-effect2"
       is_visible="true"
       lpeversion="1.2"
       lpesatellites=""
       mode="free"
       discard_orig_path="false"
       fuse_paths="false"
       oposite_fuse="false"
       split_items="false"
       split_open="false"
       link_styles="false" /><inkscape:path-effect
       effect="mirror_symmetry"
       start_point="67.999245,24.321631"
       end_point="67.999245,110.65184"
       center_point="67.999245,67.486736"
       id="path-effect2-6"
       is_visible="true"
       lpeversion="1.2"
       lpesatellites=""
       mode="free"
       discard_orig_path="false"
       fuse_paths="false"
       oposite_fuse="false"
       split_items="false"
       split_open="false"
       link_styles="false" /></defs><plotdata
     application="axidraw"
     model="2"
     plob_version="n/a"
     layer="-2"
     pause_dist="-25400"
     pause_ref="-25400"
     last_x="-2.0233259512281163e-13"
     last_y="4.067801651075342e-13"
     rand_seed="1"
     row="0" /><path
     id="path2"
     style="display:none;fill:#fdfdeb;fill-opacity:1;stroke:#000000;stroke-width:0.24552;stroke-linecap:round;stroke-opacity:0.998998"
     d="m 28.669051,24.321513 -6.50813,0.01034 c 0,0 10.402399,80.661667 13.60072,83.860007 3.198323,3.19829 26.946159,2.57089 26.946159,2.57089 0,0 23.967035,0.0388 25.913683,-1.86919 1.946648,-1.90802 5.95414,-25.096086 5.95414,-25.096086 1.089101,-1.717519 10.888587,-4.586794 16.264707,-9.236418 5.37613,-4.649628 11.94804,-15.782817 6.13599,-26.196044 -5.064,-9.073004 -16.86842,-5.049549 -16.35869,-8.746753 l 2.10737,-15.286406 -6.508134,-0.01034 c 0,0 -8.926852,74.276852 -11.671639,77.475887 -2.744786,3.1991 -21.837427,3.23185 -21.837427,3.23185 0,0 -19.622324,-0.0328 -22.36711,-3.23185 C 37.595903,98.59837 28.669051,24.321513 28.669051,24.321513 Z m 71.403409,22.937424 c 0.96157,-0.664034 13.35797,0.480591 13.60947,11.926328 0.25151,11.445736 -16.884494,19.102312 -17.63973,18.334034 -0.755236,-0.768278 3.068678,-29.596329 4.03026,-30.260362 z"
     sodipodi:nodetypes="cccczcsscccccsczszz" /><g
     id="g3"
     transform="translate(16.412441,-3.418633)"><path
       id="path2-2"
       style="display:none;fill:#fdfdeb;fill-opacity:1;stroke:#000000;stroke-width:0.24552;stroke-linecap:round;stroke-opacity:0.998998"
       d="M 35.761562,108.1921 C 32.563233,104.99377 22.161082,24.331631 22.161082,24.331631 l 6.50793,-0.01 c 0,0 8.927082,74.276505 11.671875,77.475559 2.744792,3.19906 27.658363,2.70272 27.658363,2.70272 0,0 24.913571,0.49634 27.658363,-2.70272 2.744793,-3.199054 11.671877,-77.475559 11.671877,-77.475559 l 6.50793,0.01 c 0,0 -10.40215,80.662139 -13.60048,83.860469 -3.198331,3.19833 -32.23769,2.57071 -32.23769,2.57071 0,0 -29.039359,0.62762 -32.237688,-2.57071 z"
       sodipodi:nodetypes="sccscsccscs"
       inkscape:label="mug" /><path
       style="fill:#fdfdeb;fill-opacity:1;stroke:#000000;stroke-width:0.244372;stroke-linecap:round;stroke-opacity:0.998998"
       d="m 10.033147,31.421932 h 71.097524 l -10.109357,78.181898 -6.443888,2.91807 -38.553876,-0.43862 -6.477346,-2.6866 z"
       id="path4"
       inkscape:label="mask" /></g></svg>
